<?xml version="1.0" encoding="UTF-8"?>
<svg version="1.1" xmlns="http://www.w3.org/2000/svg" width="204" height="172">
<path d="M0 0 C1.24644287 -0.01429802 1.24644287 -0.01429802 2.51806641 -0.02888489 C3.41187012 -0.02797348 4.30567383 -0.02706207 5.2265625 -0.02612305 C6.14743652 -0.03040817 7.06831055 -0.0346933 8.01708984 -0.03910828 C9.96385882 -0.04485068 11.91064926 -0.04535249 13.85742188 -0.04101562 C16.84021457 -0.03785383 19.82201733 -0.06132215 22.8046875 -0.08666992 C24.69531125 -0.08894269 26.58593766 -0.08964652 28.4765625 -0.08862305 C29.37036621 -0.09783279 30.26416992 -0.10704254 31.18505859 -0.11653137 C32.43150146 -0.10718819 32.43150146 -0.10718819 33.703125 -0.09765625 C34.43354004 -0.09828568 35.16395508 -0.0989151 35.91650391 -0.0995636 C38.40824816 0.38231588 39.30858494 1.29683263 40.8515625 3.2746582 C41.04589844 5.34228516 41.04589844 5.34228516 40.8359375 7.76293945 C39.96017661 26.56788412 46.92510519 39.70029431 55.88378906 55.55023193 C57.34312297 58.1505448 58.75333185 60.77664186 60.1640625 63.40356445 C62.10439885 67.00779971 64.06355108 70.60015137 66.046875 74.1809082 C68.93772936 79.40986459 71.75165658 84.67743838 74.5390625 89.9621582 C74.9616333 90.75904053 75.3842041 91.55592285 75.81958008 92.37695312 C76.20525146 93.11018799 76.59092285 93.84342285 76.98828125 94.59887695 C77.32561279 95.23913818 77.66294434 95.87939941 78.01049805 96.5390625 C78.8515625 98.2746582 78.8515625 98.2746582 79.8515625 101.2746582 C87.38443695 100.21387909 93.63035957 95.25491567 98.2265625 89.3371582 C105.51574504 78.68214916 107.39761175 68.38780602 105.42578125 55.48950195 C102.98717585 46.04925651 96.86652145 37.77673043 88.8515625 32.2746582 C86.48799241 30.89718797 84.11035104 29.59268628 81.671875 28.3527832 C79.8515625 27.2746582 79.8515625 27.2746582 78.8515625 25.2746582 C78.78090633 23.23410815 78.76734274 21.19131563 78.7890625 19.1496582 C78.79808594 18.05395508 78.80710937 16.95825195 78.81640625 15.8293457 C78.82800781 14.98629883 78.83960938 14.14325195 78.8515625 13.2746582 C77.42106567 13.29822388 77.42106567 13.29822388 75.96166992 13.32226562 C72.42269337 13.37657499 68.88375364 13.41101154 65.34448242 13.43945312 C63.81284389 13.45453757 62.28124852 13.47500799 60.74975586 13.50097656 C58.54790596 13.53737667 56.34662717 13.55438733 54.14453125 13.56762695 C53.46005417 13.58311081 52.77557709 13.59859467 52.07035828 13.61454773 C49.17668597 13.61557154 47.30775433 13.60424224 44.9206543 11.87963867 C42.84264917 8.76002102 43.50465462 5.9171909 43.8515625 2.2746582 C46.91299132 0.23370566 47.54897746 0.02176873 51 0 C52.24644287 -0.01429802 52.24644287 -0.01429802 53.51806641 -0.02888489 C54.41187012 -0.02797348 55.30567383 -0.02706207 56.2265625 -0.02612305 C57.14743652 -0.03040817 58.06831055 -0.0346933 59.01708984 -0.03910828 C60.96385882 -0.04485068 62.91064926 -0.04535249 64.85742188 -0.04101562 C67.84021457 -0.03785383 70.82201733 -0.06132215 73.8046875 -0.08666992 C75.69531125 -0.08894269 77.58593766 -0.08964652 79.4765625 -0.08862305 C80.37036621 -0.09783279 81.26416992 -0.10704254 82.18505859 -0.11653137 C83.43150146 -0.10718819 83.43150146 -0.10718819 84.703125 -0.09765625 C85.43354004 -0.09828568 86.16395508 -0.0989151 86.91650391 -0.0995636 C89.43993519 0.38844385 90.3318145 1.22755571 91.8515625 3.2746582 C92.01171875 6.6027832 92.01171875 6.6027832 91.9140625 10.5246582 C91.99589261 14.45017858 92.08711844 17.42206751 94.81640625 20.46606445 C96.54194529 21.56945228 98.30108586 22.62160421 100.0859375 23.6262207 C109.84847459 29.44513405 115.82746681 40.2209914 118.8828125 50.8684082 C122.37604543 66.00575089 120.5522966 79.91125026 112.4765625 93.3371582 C106.18696623 102.97503954 98.29128147 109.3084885 87.8515625 114.2746582 C88.3671875 115.3265332 88.8828125 116.3784082 89.4140625 117.4621582 C90.82891375 120.781359 91.20220862 122.80156818 89.8515625 126.2746582 C88.7265625 128.0871582 88.7265625 128.0871582 86.8515625 129.2746582 C83.4765625 129.8996582 83.4765625 129.8996582 79.8515625 129.2746582 C76.84624645 126.39967474 75.15632957 123.18895942 73.8515625 119.2746582 C69.77650408 118.52046829 65.86370648 118.16982115 61.7265625 118.0246582 C47.58002119 116.977363 35.87902206 109.16107672 26.21875 99.18481445 C18.13742936 89.24985756 14.23901614 77.42513206 14.54296875 64.67700195 C14.8515625 62.2746582 14.8515625 62.2746582 16.4140625 59.5246582 C19.92334381 57.72502676 22.11567731 58.23691232 25.8515625 59.2746582 C28.07099165 62.60380193 28.26852892 64.4158299 28.7265625 68.3371582 C30.05831855 77.61815578 32.95143987 84.9771381 38.8515625 92.2746582 C39.5115625 92.6046582 40.1715625 92.9346582 40.8515625 93.2746582 C40.8515625 93.9346582 40.8515625 94.5946582 40.8515625 95.2746582 C42.18365437 95.94380203 43.51733191 96.60978909 44.8515625 97.2746582 C45.65851563 97.6768457 46.46546875 98.0790332 47.296875 98.4934082 C48.18117188 98.9162207 49.06546875 99.3390332 49.9765625 99.7746582 C50.84539062 100.1974707 51.71421875 100.6202832 52.609375 101.0559082 C56.93176405 102.68070987 61.31410731 103.47386503 65.8515625 104.2746582 C57.4769598 87.84095166 57.4769598 87.84095166 48.5390625 71.7121582 C42.12976056 60.694071 36.72241367 49.15670597 31.37695312 37.59375 C29.97474216 34.20033222 29.97474216 34.20033222 27.8515625 31.2746582 C27.76524376 29.93198407 27.74449777 28.58491498 27.75390625 27.23950195 C27.75640381 26.51110107 27.75890137 25.7827002 27.76147461 25.03222656 C27.77057861 24.101604 27.77968262 23.17098145 27.7890625 22.2121582 C27.8096875 19.2627832 27.8303125 16.3134082 27.8515625 13.2746582 C20.5915625 13.2746582 13.3315625 13.2746582 5.8515625 13.2746582 C6.1196875 15.5434082 6.3878125 17.8121582 6.6640625 20.1496582 C7.19657225 32.424376 0.2914183 42.56920691 -5.39111328 52.9909668 C-8.06381508 57.9851095 -10.4858047 63.08862397 -12.8984375 68.2121582 C-13.78891257 70.08462535 -14.67953503 71.9570224 -15.5703125 73.8293457 C-16.43010696 75.64425121 -17.28948543 77.45935386 -18.1484375 79.2746582 C-18.57705078 80.17990234 -19.00566406 81.08514648 -19.44726562 82.01782227 C-19.86943359 82.90953125 -20.29160156 83.80124023 -20.7265625 84.7199707 C-21.33999512 86.01559937 -21.33999512 86.01559937 -21.96582031 87.33740234 C-22.72659403 88.94548701 -23.48643599 90.55401298 -24.24511719 92.16308594 C-24.58446289 92.88181885 -24.92380859 93.60055176 -25.2734375 94.34106445 C-25.56476562 94.95925049 -25.85609375 95.57743652 -26.15625 96.21435547 C-27.45733682 98.91609555 -28.80293359 101.59481541 -30.1484375 104.2746582 C-29.44544022 104.27021698 -28.74244293 104.26577576 -28.0181427 104.26119995 C-21.38273747 104.22107287 -14.74736626 104.19064824 -8.11186695 104.17103386 C-4.70074588 104.16061081 -1.28972533 104.14647882 2.12133789 104.1237793 C6.04572331 104.09782816 9.97006846 104.08817316 13.89453125 104.0793457 C15.11553024 104.06902313 16.33652924 104.05870056 17.5945282 104.04806519 C18.7353334 104.04791412 19.87613861 104.04776306 21.05151367 104.04760742 C22.05300949 104.0431662 23.05450531 104.03872498 24.08634949 104.03414917 C27.08103152 104.29461666 29.18601109 104.89232868 31.8515625 106.2746582 C33.8515625 109.2746582 33.8515625 109.2746582 33.7890625 112.2746582 C32.8515625 115.2746582 32.8515625 115.2746582 30.68295288 116.93888855 C27.40858048 118.48364455 25.2216126 118.64906296 21.61181641 118.64697266 C19.75431259 118.65631584 19.75431259 118.65631584 17.85928345 118.66584778 C16.51555987 118.65715716 15.17184022 118.6478389 13.828125 118.63793945 C12.43956503 118.63742023 11.05100432 118.63794033 9.66244507 118.63945007 C6.75564563 118.63936052 3.84912448 118.62896792 0.94238281 118.61083984 C-2.76854358 118.58819553 -6.47906227 118.5876027 -10.19003868 118.59435749 C-13.05723643 118.59771315 -15.92434265 118.59103677 -18.79152298 118.58122826 C-20.15894719 118.57740025 -21.52638163 118.576218 -22.89381027 118.5778141 C-39.77775862 118.58110837 -39.77775862 118.58110837 -44.04980469 114.42480469 C-46.12299405 110.36734276 -45.89076448 106.70569964 -45.1484375 102.2746582 C-43.44336065 97.56213796 -41.19584969 93.1567417 -38.8984375 88.7121582 C-38.25752667 87.43626216 -37.61872231 86.15930601 -36.98193359 84.88134766 C-35.68116915 82.27460982 -34.37161403 79.67258841 -33.05566406 77.07348633 C-30.20120332 71.41485105 -27.49376716 65.68612075 -24.7734375 59.9621582 C-21.14223085 52.36963521 -17.46877489 44.80238321 -13.64501953 37.3046875 C-12.79800078 35.63545116 -11.97281309 33.95519253 -11.1484375 32.2746582 C-10.31505859 30.69491211 -10.31505859 30.69491211 -9.46484375 29.08325195 C-6.99477582 23.22307095 -7.67481075 16.52710674 -7.62109375 10.28442383 C-7.59917969 9.28475586 -7.57726563 8.28508789 -7.5546875 7.25512695 C-7.54759766 6.34657959 -7.54050781 5.43803223 -7.53320312 4.50195312 C-7.40623047 3.7669458 -7.27925781 3.03193848 -7.1484375 2.2746582 C-4.08700868 0.23370566 -3.45102254 0.02176873 0 0 Z " fill="#64C7D0" transform="translate(60.1484375,34.725341796875)"/>
<path d="M0 0 C1.24644287 -0.01429802 1.24644287 -0.01429802 2.51806641 -0.02888489 C3.41187012 -0.02797348 4.30567383 -0.02706207 5.2265625 -0.02612305 C6.14743652 -0.03040817 7.06831055 -0.0346933 8.01708984 -0.03910828 C9.96385882 -0.04485068 11.91064926 -0.04535249 13.85742188 -0.04101562 C16.84021457 -0.03785383 19.82201733 -0.06132215 22.8046875 -0.08666992 C24.69531125 -0.08894269 26.58593766 -0.08964652 28.4765625 -0.08862305 C29.37036621 -0.09783279 30.26416992 -0.10704254 31.18505859 -0.11653137 C32.43150146 -0.10718819 32.43150146 -0.10718819 33.703125 -0.09765625 C34.43354004 -0.09828568 35.16395508 -0.0989151 35.91650391 -0.0995636 C38.43993519 0.38844385 39.3318145 1.22755571 40.8515625 3.2746582 C41.01171875 6.6027832 41.01171875 6.6027832 40.9140625 10.5246582 C40.99589261 14.45017858 41.08711844 17.42206751 43.81640625 20.46606445 C45.54194529 21.56945228 47.30108586 22.62160421 49.0859375 23.6262207 C58.84847459 29.44513405 64.82746681 40.2209914 67.8828125 50.8684082 C71.37604543 66.00575089 69.5522966 79.91125026 61.4765625 93.3371582 C55.18696623 102.97503954 47.29128147 109.3084885 36.8515625 114.2746582 C37.3671875 115.3265332 37.8828125 116.3784082 38.4140625 117.4621582 C39.82891375 120.781359 40.20220862 122.80156818 38.8515625 126.2746582 C37.7265625 128.0871582 37.7265625 128.0871582 35.8515625 129.2746582 C32.4765625 129.8996582 32.4765625 129.8996582 28.8515625 129.2746582 C25.84624645 126.39967474 24.15632957 123.18895942 22.8515625 119.2746582 C18.77650408 118.52046829 14.86370648 118.16982115 10.7265625 118.0246582 C-3.41997881 116.977363 -15.12097794 109.16107672 -24.78125 99.18481445 C-32.86257064 89.24985756 -36.76098386 77.42513206 -36.45703125 64.67700195 C-36.1484375 62.2746582 -36.1484375 62.2746582 -34.5859375 59.5246582 C-31.07665619 57.72502676 -28.88432269 58.23691232 -25.1484375 59.2746582 C-22.92900835 62.60380193 -22.73147108 64.4158299 -22.2734375 68.3371582 C-20.94168145 77.61815578 -18.04856013 84.9771381 -12.1484375 92.2746582 C-11.4884375 92.6046582 -10.8284375 92.9346582 -10.1484375 93.2746582 C-10.1484375 93.9346582 -10.1484375 94.5946582 -10.1484375 95.2746582 C-7.06982606 96.83198858 -3.96563978 98.32268883 -0.8359375 99.7746582 C0.06769531 100.1974707 0.97132812 100.6202832 1.90234375 101.0559082 C12.29312466 105.3498468 22.9759206 104.98754734 33.4453125 100.85668945 C43.40105913 95.36343027 49.68987431 87.81645515 53.8515625 77.2746582 C56.56809488 66.78678004 55.76503183 55.07013982 50.33984375 45.6496582 C45.032609 37.63513742 39.19142503 32.68475779 30.671875 28.3527832 C28.8515625 27.2746582 28.8515625 27.2746582 27.8515625 25.2746582 C27.78090633 23.23410815 27.76734274 21.19131563 27.7890625 19.1496582 C27.79808594 18.05395508 27.80710938 16.95825195 27.81640625 15.8293457 C27.82800781 14.98629883 27.83960938 14.14325195 27.8515625 13.2746582 C26.42106567 13.29822388 26.42106567 13.29822388 24.96166992 13.32226562 C21.42269337 13.37657499 17.88375364 13.41101154 14.34448242 13.43945312 C12.81284389 13.45453757 11.28124852 13.47500799 9.74975586 13.50097656 C7.54790596 13.53737667 5.34662717 13.55438733 3.14453125 13.56762695 C2.46005417 13.58311081 1.77557709 13.59859467 1.07035828 13.61454773 C-1.82331403 13.61557154 -3.69224567 13.60424224 -6.0793457 11.87963867 C-8.15735083 8.76002102 -7.49534538 5.9171909 -7.1484375 2.2746582 C-4.08700868 0.23370566 -3.45102254 0.02176873 0 0 Z " fill="#0B6BC7" transform="translate(111.1484375,34.725341796875)"/>
<path d="M0 0 C1.24644287 -0.01429802 1.24644287 -0.01429802 2.51806641 -0.02888489 C3.41187012 -0.02797348 4.30567383 -0.02706207 5.2265625 -0.02612305 C6.14743652 -0.03040817 7.06831055 -0.0346933 8.01708984 -0.03910828 C9.96385882 -0.04485068 11.91064926 -0.04535249 13.85742188 -0.04101562 C16.84021457 -0.03785383 19.82201733 -0.06132215 22.8046875 -0.08666992 C24.69531125 -0.08894269 26.58593766 -0.08964652 28.4765625 -0.08862305 C29.37036621 -0.09783279 30.26416992 -0.10704254 31.18505859 -0.11653137 C32.43150146 -0.10718819 32.43150146 -0.10718819 33.703125 -0.09765625 C34.43354004 -0.09828568 35.16395508 -0.0989151 35.91650391 -0.0995636 C38.44277645 0.38899332 39.32693932 1.22734032 40.8515625 3.2746582 C41.07310684 5.8037163 41.18102132 8.18529349 41.1640625 10.7121582 C41.02242939 14.66039081 41.02242939 14.66039081 41.8515625 18.2746582 C44.69443583 20.64931374 44.69443583 20.64931374 47.8515625 22.2746582 C49.74956177 24.95803648 50.81249066 27.15744267 51.8515625 30.2746582 C52.5115625 30.2746582 53.1715625 30.2746582 53.8515625 30.2746582 C53.8515625 31.2646582 53.8515625 32.2546582 53.8515625 33.2746582 C54.8415625 33.6046582 55.8315625 33.9346582 56.8515625 34.2746582 C56.8515625 34.9346582 56.8515625 35.5946582 56.8515625 36.2746582 C58.3365625 36.7696582 58.3365625 36.7696582 59.8515625 37.2746582 C59.5215625 38.9246582 59.1915625 40.5746582 58.8515625 42.2746582 C57.5315625 42.6046582 56.2115625 42.9346582 54.8515625 43.2746582 C54.8515625 42.6146582 54.8515625 41.9546582 54.8515625 41.2746582 C54.1915625 41.2746582 53.5315625 41.2746582 52.8515625 41.2746582 C52.3565625 42.2646582 52.3565625 42.2646582 51.8515625 43.2746582 C48.20039049 42.72383484 47.01755666 41.57149408 44.8515625 38.6496582 C41.03755549 34.01955362 36.57474344 31.51903513 31.328125 28.7199707 C28.8515625 27.2746582 28.8515625 27.2746582 27.8515625 25.2746582 C27.78090633 23.23410815 27.76734274 21.19131563 27.7890625 19.1496582 C27.79808594 18.05395508 27.80710938 16.95825195 27.81640625 15.8293457 C27.82800781 14.98629883 27.83960938 14.14325195 27.8515625 13.2746582 C26.42106567 13.29822388 26.42106567 13.29822388 24.96166992 13.32226562 C21.42269337 13.37657499 17.88375364 13.41101154 14.34448242 13.43945312 C12.81284389 13.45453757 11.28124852 13.47500799 9.74975586 13.50097656 C7.54790596 13.53737667 5.34662717 13.55438733 3.14453125 13.56762695 C2.46005417 13.58311081 1.77557709 13.59859467 1.07035828 13.61454773 C-1.82331403 13.61557154 -3.69224567 13.60424224 -6.0793457 11.87963867 C-8.15735083 8.76002102 -7.49534538 5.9171909 -7.1484375 2.2746582 C-4.08700868 0.23370566 -3.45102254 0.02176873 0 0 Z " fill="#0868C6" transform="translate(111.1484375,34.725341796875)"/>
<path d="M0 0 C2.35373401 3.53060101 2.65778415 6.58595756 3.125 10.6875 C3.21136719 11.38939453 3.29773438 12.09128906 3.38671875 12.81445312 C3.59826875 14.54211145 3.800086 16.2709566 4 18 C3.34 18.33 2.68 18.66 2 19 C1.34 17.68 0.68 16.36 0 15 C-1.25872256 16.02965595 -1.25872256 16.02965595 -1.0625 18.25 C-1.041875 19.1575 -1.02125 20.065 -1 21 C-0.96213099 22.66623639 -0.95372155 24.33397597 -1 26 C-1.33 26.33 -1.66 26.66 -2 27 C-2.04384447 28.66608987 -2.0396713 30.33380554 -2 32 C-2 32.99 -2 33.98 -2 35 C-4.9667491 32.47566086 -6.15962184 29.76104489 -7.625 26.1875 C-8.05039063 25.17042969 -8.47578125 24.15335938 -8.9140625 23.10546875 C-11.1772923 16.63328281 -11.74239352 9.80880914 -11 3 C-8.20258283 -1.92345422 -5.13270798 -1.42575222 0 0 Z " fill="#1770C6" transform="translate(86,94)"/>
<path d="M0 0 C0.928125 0.20625 1.85625 0.4125 2.8125 0.625 C2.8125 1.615 2.8125 2.605 2.8125 3.625 C2.1525 3.625 1.4925 3.625 0.8125 3.625 C0.60279441 7.76593698 0.60279441 7.76593698 1.8125 11.625 C0.4925 11.625 -0.8275 11.625 -2.1875 11.625 C-2.1875 12.285 -2.1875 12.945 -2.1875 13.625 C-3.1775 13.625 -4.1675 13.625 -5.1875 13.625 C-5.1875 14.285 -5.1875 14.945 -5.1875 15.625 C-6.1775 15.625 -7.1675 15.625 -8.1875 15.625 C-8.5175 16.615 -8.8475 17.605 -9.1875 18.625 C-12.1575 18.625 -15.1275 18.625 -18.1875 18.625 C-18.1875 17.965 -18.1875 17.305 -18.1875 16.625 C-18.8475 16.625 -19.5075 16.625 -20.1875 16.625 C-20.1875 15.965 -20.1875 15.305 -20.1875 14.625 C-19.5275 14.295 -18.8675 13.965 -18.1875 13.625 C-17.53536708 11.60036745 -17.53536708 11.60036745 -17.1875 9.625 C-16.053125 9.33625 -14.91875 9.0475 -13.75 8.75 C-12.574375 8.37875 -11.39875 8.0075 -10.1875 7.625 C-9.8575 6.965 -9.5275 6.305 -9.1875 5.625 C-8.1975 5.625 -7.2075 5.625 -6.1875 5.625 C-6.1875 4.305 -6.1875 2.985 -6.1875 1.625 C-3.1875 -0.375 -3.1875 -0.375 0 0 Z " fill="#0467C9" transform="translate(154.1875,131.375)"/>
<path d="M0 0 C1.93676815 3.04349281 3.04441178 5.04514673 2.875 8.6875 C1.87699986 11.3250718 1.39363328 12.48403225 -1 14 C-4.375 14.625 -4.375 14.625 -8 14 C-11.00531605 11.12501654 -12.69523293 7.91430121 -14 4 C-14.66 3.34 -15.32 2.68 -16 2 C-13.89829344 1.46932659 -11.79352402 0.95077143 -9.6875 0.4375 C-7.92986328 0.00244141 -7.92986328 0.00244141 -6.13671875 -0.44140625 C-3 -1 -3 -1 0 0 Z " fill="#5BC5CD" transform="translate(148,150)"/>
<path d="M0 0 C1 3 1 3 1 6 C1.99 5.67 2.98 5.34 4 5 C4 6.98 4 8.96 4 11 C4.5775 11.0825 5.155 11.165 5.75 11.25 C8.61735579 12.20578526 9.91800845 13.85084743 12 16 C12.99 16.33 13.98 16.66 15 17 C15 17.66 15 18.32 15 19 C17.31 19.33 19.62 19.66 22 20 C21.67 20.66 21.34 21.32 21 22 C9.9251677 20.23041279 2.30453225 13.01755601 -5 5 C-4.01 4.67 -3.02 4.34 -2 4 C-0.79117904 1.99983534 -0.79117904 1.99983534 0 0 Z " fill="#0B66C0" transform="translate(91,128)"/>
<path d="M0 0 C1.26096748 0.00022659 1.26096748 0.00022659 2.54740906 0.00045776 C3.90223137 0.01594162 3.90223137 0.01594162 5.28442383 0.03173828 C6.67640739 0.03598312 6.67640739 0.03598312 8.09651184 0.04031372 C11.06162386 0.05151242 14.02643429 0.07661644 16.99145508 0.10205078 C19.00121634 0.11208098 21.01098234 0.12120676 23.02075195 0.12939453 C27.94860261 0.15145074 32.8762277 0.18597849 37.80395508 0.22705078 C37.80395508 0.55705078 37.80395508 0.88705078 37.80395508 1.22705078 C36.68835205 1.25210693 35.57274902 1.27716309 34.42333984 1.30297852 C30.29902918 1.396885 26.17489358 1.49714592 22.05078125 1.59936523 C20.26306238 1.64277778 18.47530034 1.68444807 16.6875 1.72436523 C14.12332117 1.78191538 11.55936096 1.84565281 8.99536133 1.91064453 C8.19119278 1.92735703 7.38702423 1.94406952 6.55848694 1.96128845 C2.8772551 1.71925774 2.8772551 1.71925774 -0.19604492 3.22705078 C-1.84604492 3.22705078 -3.49604492 3.22705078 -5.19604492 3.22705078 C-5.52604492 11.14705078 -5.85604492 19.06705078 -6.19604492 27.22705078 C-6.85604492 27.22705078 -7.51604492 27.22705078 -8.19604492 27.22705078 C-8.11548685 23.10123108 -8.00261807 18.97692447 -7.88354492 14.85205078 C-7.86098633 13.67642578 -7.83842773 12.50080078 -7.81518555 11.28955078 C-7.77973633 10.16806641 -7.74428711 9.04658203 -7.70776367 7.89111328 C-7.68157959 6.85422363 -7.65539551 5.81733398 -7.62841797 4.74902344 C-7.48573486 3.91677246 -7.34305176 3.08452148 -7.19604492 2.22705078 C-4.10548537 0.16667775 -3.4867833 -0.02094164 0 0 Z " fill="#78C1C7" transform="translate(60.196044921875,34.77294921875)"/>
<path d="M0 0 C1.98 0.99 1.98 0.99 4 2 C4 2.99 4 3.98 4 5 C4.66 4.67 5.32 4.34 6 4 C6.5625 5.9375 6.5625 5.9375 7 8 C6.67 8.33 6.34 8.66 6 9 C15.57 9.33 25.14 9.66 35 10 C35 10.33 35 10.66 35 11 C30.49767666 11.07417023 25.99570909 11.1286105 21.49291992 11.16479492 C19.96128139 11.17987936 18.42968602 11.20034978 16.89819336 11.22631836 C14.69634346 11.26271847 12.49506467 11.27972913 10.29296875 11.29296875 C9.60849167 11.30845261 8.92401459 11.32393646 8.21879578 11.33988953 C5.32590147 11.34091306 3.45368475 11.32562857 1.0625 9.609375 C-0.91954815 6.60715502 -0.1716936 3.49110318 0 0 Z M4 1 C6 2 6 2 6 2 Z " fill="#176ABC" transform="translate(104,37)"/>
<path d="M0 0 C0.33 0 0.66 0 1 0 C-0.93427562 14.09257951 -0.93427562 14.09257951 -6 19 C-6.33 19.66 -6.66 20.32 -7 21 C-7.66 21 -8.32 21 -9 21 C-7.50640515 16.15713185 -5.54966433 11.68649104 -3.375 7.125 C-2.88773438 6.09246094 -2.88773438 6.09246094 -2.390625 5.0390625 C-1.59676528 3.35794781 -0.79880442 1.67877079 0 0 Z " fill="#81CCD1" transform="translate(43,79)"/>
<path d="M0 0 C1.66666667 1.66666667 3.33333333 3.33333333 5 5 C5.8971875 5.8353125 5.8971875 5.8353125 6.8125 6.6875 C8 8 8 8 8 10 C8.928125 10.433125 8.928125 10.433125 9.875 10.875 C12 12 12 12 14 14 C12.35 14.33 10.7 14.66 9 15 C8.67 14.01 8.34 13.02 8 12 C7.01 12.495 7.01 12.495 6 13 C6 12.34 6 11.68 6 11 C5.01 11.33 4.02 11.66 3 12 C3.185625 11.401875 3.37125 10.80375 3.5625 10.1875 C4.22093687 7.83591238 4.22093687 7.83591238 3 5 C2.01 5 1.02 5 0 5 C0 3.35 0 1.7 0 0 Z " fill="#196FBE" transform="translate(93,120)"/>
<path d="M0 0 C0.99 0.33 1.98 0.66 3 1 C3.75 3.1875 3.75 3.1875 4 6 C2.5 8.8125 2.5 8.8125 0 11 C-3.75 11.3125 -3.75 11.3125 -7 11 C-7 10.67 -7 10.34 -7 10 C-5.02 10 -3.04 10 -1 10 C-1.20625 9.0925 -1.4125 8.185 -1.625 7.25 C-2.0127245 3.88972103 -1.80411967 2.75924185 0 0 Z " fill="#76C9D0" transform="translate(147,153)"/>
<path d="M0 0 C3.36938898 1.12312966 4.53174093 2.53174093 7 5 C7.99 5.33 8.98 5.66 10 6 C10 6.66 10 7.32 10 8 C12.31 8.33 14.62 8.66 17 9 C16.67 9.66 16.34 10.32 16 11 C11.95293895 10.39552094 8.89235455 9.08830359 5.3125 7.125 C4.35988281 6.61195313 3.40726562 6.09890625 2.42578125 5.5703125 C0 4 0 4 -2 1 C-1.34 0.67 -0.68 0.34 0 0 Z " fill="#2B79C1" transform="translate(96,139)"/>
<path d="M0 0 C0.66 0 1.32 0 2 0 C2 1.32 2 2.64 2 4 C1.01 4.495 1.01 4.495 0 5 C-1.14077657 8.42232972 -1.09815117 11.08673217 -1.0625 14.6875 C-1.04896484 16.45673828 -1.04896484 16.45673828 -1.03515625 18.26171875 C-1.02355469 19.16535156 -1.01195312 20.06898438 -1 21 C-3.0345475 19.33242659 -3.91704092 18.42077445 -4.43359375 15.80078125 C-4.44359198 9.4319087 -3.25005699 5.48447117 0 0 Z " fill="#88CDCF" transform="translate(19,129)"/>
<path d="M0 0 C3.83450856 1.54787502 6.02555699 3.93722746 8.75 7 C9.54921875 7.886875 10.3484375 8.77375 11.171875 9.6875 C13 12 13 12 13 14 C9.76509224 13.44225728 8.02144994 12.62788492 6 10 C6 9.01 6 8.02 6 7 C5.34 7 4.68 7 4 7 C0 2.52941176 0 2.52941176 0 0 Z " fill="#367EC2" transform="translate(159,58)"/>
<path d="M0 0 C2.97 0.495 2.97 0.495 6 1 C2.2075342 5.26652402 -1.67233976 7.89480975 -7 10 C-7.66 10 -8.32 10 -9 10 C-9 9.34 -9 8.68 -9 8 C-8.01 8 -7.02 8 -6 8 C-6 7.34 -6 6.68 -6 6 C-5.01 6 -4.02 6 -3 6 C-3 5.34 -3 4.68 -3 4 C-1.68 4 -0.36 4 1 4 C0.34 3.67 -0.32 3.34 -1 3 C-0.67 2.01 -0.34 1.02 0 0 Z " fill="#1F70BC" transform="translate(155,139)"/>
<path d="M0 0 C0.59425781 0.144375 1.18851562 0.28875 1.80078125 0.4375 C8.28732452 1.89016288 14.36613186 2.2270145 21 2 C20.67 2.66 20.34 3.32 20 4 C17.60385874 4.05425226 15.20896147 4.09379027 12.8125 4.125 C11.80219727 4.15013672 11.80219727 4.15013672 10.77148438 4.17578125 C6.71192193 4.21538674 3.65001185 3.80020002 0 2 C0 1.34 0 0.68 0 0 Z " fill="#2074B9" transform="translate(113,137)"/>
<path d="M0 0 C1.5625 1.1875 1.5625 1.1875 3 3 C3 7.90069503 0.12713557 10.55213258 -3 14 C-3.33 12.68 -3.66 11.36 -4 10 C-3.34 10 -2.68 10 -2 10 C-2.33 9.01 -2.66 8.02 -3 7 C-2.34 6.67 -1.68 6.34 -1 6 C-0.34 6.33 0.32 6.66 1 7 C0.34 6.01 -0.32 5.02 -1 4 C-0.625 1.8125 -0.625 1.8125 0 0 Z " fill="#2274C1" transform="translate(171,120)"/>
<path d="M0 0 C1.65 0.33 3.3 0.66 5 1 C4.67 2.65 4.34 4.3 4 6 C2.68 6.33 1.36 6.66 0 7 C0 6.34 0 5.68 0 5 C-0.66 5 -1.32 5 -2 5 C-2 4.01 -2 3.02 -2 2 C-1.34 2 -0.68 2 0 2 C0 1.34 0 0.68 0 0 Z " fill="#0167CC" transform="translate(166,71)"/>
<path d="M0 0 C0.33 0 0.66 0 1 0 C1.66 1.98 2.32 3.96 3 6 C4.32 6 5.64 6 7 6 C7.66 6.66 8.32 7.32 9 8 C8.625 10.125 8.625 10.125 8 12 C1.125 8.25 1.125 8.25 0 6 C-0.039992 4.00039988 -0.04346799 1.99952758 0 0 Z " fill="#2972B9" transform="translate(139,54)"/>
<path d="M0 0 C1.65 0 3.3 0 5 0 C7.12046792 3.53411321 7.53199289 6.94393835 8 11 C5.02162237 8.44710489 3.70605768 5.48629178 2 2 C1.34 1.34 0.68 0.68 0 0 Z " fill="#8BCFD9" transform="translate(132,152)"/>
<path d="M0 0 C0.99 0.33 1.98 0.66 3 1 C1.79618552 3.49361571 0.54571278 5.68143083 -1 8 C-1.66 8 -2.32 8 -3 8 C-3 8.66 -3 9.32 -3 10 C-4.32 10.33 -5.64 10.66 -7 11 C-4.69 7.37 -2.38 3.74 0 0 Z " fill="#297CC4" transform="translate(162,118)"/>
<path d="M0 0 C3.16115776 1.36983503 3.9927092 1.9890638 6 5 C6.07905064 7.33199388 6.08798769 9.66832622 6 12 C4.02433812 10.02433812 3.10420928 8.47662906 1.875 6 C1.52179688 5.29875 1.16859375 4.5975 0.8046875 3.875 C0 2 0 2 0 0 Z " fill="#82CDD3" transform="translate(91,70)"/>
<path d="M0 0 C0.99 0.33 1.98 0.66 3 1 C3.6875 3.0625 3.6875 3.0625 4 5 C2.02 5.99 2.02 5.99 0 7 C-1 6 -1 6 -1.125 3.5 C-1 1 -1 1 0 0 Z " fill="#68CAD8" transform="translate(145,149)"/>
<path d="M0 0 C0.99 0.33 1.98 0.66 3 1 C1.35 4.3 -0.3 7.6 -2 11 C-2.66 9.68 -3.32 8.36 -4 7 C-3.34 6.01 -2.68 5.02 -2 4 C-1.34 4 -0.68 4 0 4 C0 2.68 0 1.36 0 0 Z " fill="#7DCACE" transform="translate(53,84)"/>
<path d="M0 0 C1.22589844 0.01353516 1.22589844 0.01353516 2.4765625 0.02734375 C3.41628906 0.04474609 3.41628906 0.04474609 4.375 0.0625 C0.81404445 1.93751642 -2.7372886 3.01580847 -6.625 4.0625 C-6.625 3.0725 -6.625 2.0825 -6.625 1.0625 C-4.21954362 -0.14022819 -2.67503047 -0.03821472 0 0 Z " fill="#84C9D1" transform="translate(60.625,34.9375)"/>
<path d="M0 0 C0.66 0 1.32 0 2 0 C2.103125 0.598125 2.20625 1.19625 2.3125 1.8125 C3.08876455 4.28243264 4.07088921 5.32251235 6 7 C5.34 8.32 4.68 9.64 4 11 C3.32591692 9.73308493 2.66099503 8.46129251 2 7.1875 C1.62875 6.47980469 1.2575 5.77210937 0.875 5.04296875 C0 3 0 3 0 0 Z " fill="#82CED2" transform="translate(107,100)"/>
<path d="M0 0 C0.66 0 1.32 0 2 0 C2.33 0.99 2.66 1.98 3 3 C1.1875 5.6875 1.1875 5.6875 -1 8 C-1.66 8 -2.32 8 -3 8 C-1.125 2.25 -1.125 2.25 0 0 Z " fill="#79CACD" transform="translate(50,65)"/>
<path d="M0 0 C1.5625 1.25 1.5625 1.25 3 3 C2.6875 5.1875 2.6875 5.1875 2 7 C2 6.34 2 5.68 2 5 C0.68 5.33 -0.64 5.66 -2 6 C-2 4.35 -2 2.7 -2 1 C-1.34 0.67 -0.68 0.34 0 0 Z " fill="#87D0DC" transform="translate(91,141)"/>
<path d="M0 0 C0.33 0.99 0.66 1.98 1 3 C0.01 3 -0.98 3 -2 3 C-2.66 4.32 -3.32 5.64 -4 7 C-4.66 6.67 -5.32 6.34 -6 6 C-6 5.01 -6 4.02 -6 3 C-4.02 2.01 -2.04 1.02 0 0 Z " fill="#1769C1" transform="translate(147,134)"/>
<path d="M0 0 C0 1.32 0 2.64 0 4 C-2.31 4 -4.62 4 -7 4 C-6.67 3.01 -6.34 2.02 -6 1 C-3.90006779 0.25486277 -2.22568901 0 0 0 Z " fill="#58BFD7" transform="translate(144,150)"/>
<path d="M0 0 C2.93200474 2.85276137 5.64315404 5.65079784 8 9 C6.0625 8.6875 6.0625 8.6875 4 8 C3.67 7.01 3.34 6.02 3 5 C2.01 5 1.02 5 0 5 C0 3.35 0 1.7 0 0 Z " fill="#3D83C3" transform="translate(93,120)"/>
<path d="M0 0 C0.99 0.33 1.98 0.66 3 1 C3.625 3.375 3.625 3.375 4 6 C3.34 6.66 2.68 7.32 2 8 C0.23537317 4.91190305 0 3.76687864 0 0 Z " fill="#8FD1D8" transform="translate(147,153)"/>
</svg>
